<svg viewBox="0 0 198 62" fill="none" xmlns="http://www.w3.org/2000/svg">
<path d="M24.3985 20.7843C24.2086 19.1783 24.0187 17.7611 23.9238 16.4385C23.4491 12.943 21.9301 3.3066 16.9935 3.3066C16.234 3.3066 15.5695 3.49555 14.81 4.06239C13.9556 4.62924 13.1011 5.4795 12.3416 6.2353C10.9176 7.93583 9.49357 9.63637 7.9746 11.3369C6.55056 12.943 5.12653 14.4545 3.70249 16.0606C3.22781 16.533 2.75314 17.0998 2.18352 17.2888C2.08859 17.2888 1.99365 17.3832 1.99365 17.3832C1.80378 17.3832 1.70884 17.2888 1.61391 17.0998C1.51897 16.4385 1.61391 15.8717 1.80378 15.3048C2.6582 12.5651 3.32275 9.73084 5.60121 7.65241C5.79108 7.55793 5.60121 7.08556 5.3164 6.99109C5.12653 6.99109 5.03159 6.89661 4.84172 6.89661C4.65185 6.89661 4.46198 6.99109 4.27211 7.08556C2.46833 8.31373 0 14.4545 0 16.9109C0.0949357 18.139 0.949357 18.8948 2.08859 18.8948C2.37339 18.8948 2.75314 18.8948 3.03794 18.7059C3.60756 18.4225 4.17717 17.9501 4.65185 17.4777C6.45563 15.7772 7.9746 13.9822 9.58851 12.0927C10.9176 10.4866 12.2467 8.88057 13.6707 7.36899C14.4302 6.51872 15.1897 5.76292 16.1391 5.10161C16.7087 4.62924 17.1834 4.44029 17.658 4.44029C18.3226 4.44029 18.8922 4.81818 19.4618 5.66845C22.0251 8.88057 22.4998 17.6667 22.6896 21.6346C22.6896 22.9572 22.3099 24.1854 21.5504 25.3191C17.753 30.9875 11.867 41.0018 10.4429 47.8984C10.1581 49.0321 10.0632 50.0713 10.2531 51.205C10.348 52.7166 11.2973 53 12.6265 53C16.9935 53 20.9808 40.9073 22.0251 37.5062C23.2592 33.9162 24.0187 30.1373 24.2086 26.2638C24.3035 24.6578 24.6833 23.3351 25.7276 22.2014C26.1073 21.8235 26.3921 21.4456 26.6769 20.9733C28.8605 18.328 31.2338 15.7772 33.7022 13.3209C34.0819 12.943 34.4617 12.5651 34.7465 12.0927C34.8414 11.8093 34.6515 11.5259 34.4617 11.3369C34.3667 11.148 34.1769 11.0535 33.987 11.0535C33.892 11.0535 33.7971 11.0535 33.7022 11.148C33.2275 11.5258 32.8478 11.8093 32.468 12.1872C30.1896 14.549 28.006 16.9109 25.9174 19.3672C25.5377 19.8396 25.2529 20.4064 24.3985 20.7843ZM11.772 49.9768C12.2467 44.2139 18.0378 33.8217 21.5504 28.4367C21.6453 28.3422 21.7403 28.2478 21.9301 28.2478C22.215 28.2478 22.215 28.5312 22.215 28.7201C21.1707 34.9554 18.2277 46.3868 13.6707 50.9216C13.3859 51.2995 13.0062 51.7718 12.6265 51.7718C12.4366 51.7718 12.3416 51.7718 12.2467 51.6774C11.6771 51.3939 11.867 50.8271 11.772 50.2602C11.772 50.2602 11.772 50.1658 11.772 49.9768Z" fill="#780202"/>
<path d="M48.3074 12.3761C48.6872 12.2816 48.8771 11.9982 48.6872 11.5258C48.4973 11.148 48.2125 11.0535 47.8328 11.0535C47.453 11.148 47.0733 11.2424 46.6935 11.4314C45.0796 12.0927 43.2758 12.2816 41.4721 12.3761C41.2822 12.3761 41.0923 12.3761 40.9025 12.3761C40.048 12.3761 39.9531 12.1872 39.8582 11.0535C39.7632 10.2977 39.5734 9.73084 39.1936 9.164C39.0037 8.7861 38.7189 8.50268 38.3392 8.59715C37.2 8.7861 35.9658 8.69162 35.1114 9.73084C32.4532 13.0374 30.7443 16.8164 30.2697 20.9733C30.1747 21.918 30.2697 22.7683 30.5545 23.6185C30.7443 24.2799 31.1241 24.7522 31.7886 25.1301C32.0734 25.3191 32.4532 25.508 32.738 25.508C33.1177 25.508 33.4975 25.3191 33.7823 25.0357C35.9658 23.3351 38.3392 17.1943 39.0987 14.6435C39.2885 13.9822 39.4784 13.5098 40.143 13.5098C40.2379 13.5098 40.4278 13.5098 40.7126 13.6043C43.3708 13.6043 45.8391 13.4153 48.3074 12.3761ZM36.3455 10.959C36.4405 10.959 36.5354 10.959 36.7253 11.148C38.1493 12.4706 38.2443 12.754 37.5797 14.6435C37.0101 16.2496 34.0671 23.8075 32.0734 23.8075C31.4089 23.0517 31.6937 22.107 31.7886 21.2567C32.1684 17.5722 33.5924 14.2656 35.8709 11.3369C35.9658 11.148 36.1557 11.0535 36.3455 10.959ZM38.5291 10.7701C38.5291 10.959 38.5291 11.2424 38.3392 11.3369C38.0544 11.3369 37.7696 10.959 37.8645 10.6756C37.9594 10.3922 38.0544 10.2032 38.3392 10.2977C38.5291 10.2977 38.5291 10.5811 38.5291 10.7701Z" fill="#780202"/>
<path d="M58.8868 7.65241C59.0767 8.21926 58.7919 8.7861 58.602 9.25847C57.5577 12.2816 56.7033 15.3048 55.9438 18.4225C55.5641 20.2175 55.1843 21.918 55.2793 23.713C55.2793 24.4688 55.3742 25.1301 55.754 25.7914C56.2286 26.7362 57.0831 27.303 58.0324 27.303C58.5071 27.303 59.1716 27.1141 59.6463 26.6417C60.0261 26.4528 60.3109 26.1693 60.5007 25.8859C61.2602 25.0357 61.9248 24.1854 62.5893 23.3351C64.8678 20.0285 67.1462 16.7219 69.4247 13.4153C69.6146 13.1319 69.8994 12.754 70.0892 12.3761C70.3741 11.9982 70.0893 11.4314 69.7095 11.2424C69.6146 11.148 69.5196 11.148 69.4247 11.148C69.2348 11.148 69.045 11.2424 68.95 11.4314C68.6652 11.7148 68.4753 11.9982 68.2855 12.2816C66.7665 14.3601 65.3425 16.4385 63.9184 18.5169C62.7792 20.2175 61.545 21.8235 60.3109 23.5241C59.7413 24.3743 58.9818 25.1301 58.1273 25.7914C57.9375 25.8859 57.8425 25.8859 57.6527 25.8859C57.3679 25.8859 57.0831 25.697 56.9881 25.3191C56.7033 23.8075 56.8932 22.3904 57.178 20.8788C57.9375 16.7219 59.0767 12.754 60.5007 8.69163C60.8805 7.65241 61.1653 6.61319 61.3552 5.4795C61.545 4.81819 61.4501 4.25134 61.0704 3.59002C60.8805 3.3066 60.5957 3.21212 60.3109 3.21212C60.121 3.21212 59.9311 3.21212 59.7413 3.40107C59.1716 3.96792 58.602 4.62923 58.1273 5.19608C56.2286 7.93583 54.6147 10.7701 53.0008 13.6043C52.0515 15.3048 51.0072 17.0053 50.0578 18.7059C49.6781 19.2727 49.2983 19.7451 49.0135 20.2175C48.8237 20.4064 48.6338 20.5009 48.4439 20.3119C48.254 20.2175 48.1591 20.0285 48.0642 19.8396C48.0642 16.0606 48.7287 12.1872 50.9122 9.06952C51.1021 8.69162 51.197 8.4082 50.9122 8.12478C50.7224 7.93583 50.5325 7.84136 50.3426 7.84136C50.0578 7.84136 49.8679 7.93583 49.6781 8.12478C49.1085 8.59715 48.6338 9.35294 48.349 10.1087C47.0199 13.0374 46.3553 16.0606 46.4503 19.3672C46.4503 20.0285 46.5452 20.6898 46.83 21.2567C47.3047 22.0125 47.9692 22.3904 48.6338 22.3904C49.2034 22.3904 49.6781 22.2014 50.1528 21.7291C50.6274 21.1622 51.1021 20.5009 51.4818 19.934C52.4312 18.328 53.2856 16.7219 54.235 15.1159C55.4692 12.8485 56.7983 10.5811 58.1273 8.31373C58.2223 8.0303 58.3172 7.65241 58.8868 7.65241Z" fill="#780202"/>
<path d="M64.7358 13.7932C65.2104 14.2656 65.875 14.549 66.4446 14.549C67.394 14.549 69.2927 13.6988 70.0522 13.2264C72.8053 11.7148 75.5584 10.2977 78.3116 8.88058C78.5964 8.7861 78.8812 8.50268 79.166 8.50268C79.2609 8.50268 79.3559 8.59715 79.5457 8.69163C79.4508 9.35294 78.8812 9.82531 78.5014 10.2977C74.0395 16.6274 70.337 21.8235 69.1977 29.7594C68.9129 32.0267 68.9129 34.2941 69.5775 36.5615C70.1471 37.9786 71.3813 38.9234 72.8053 38.9234C73.1851 38.9234 73.4699 38.8289 73.8496 38.7344C75.5584 38.1676 76.7926 37.0339 77.647 35.5223C77.9318 35.1444 77.742 34.672 77.2673 34.3886C77.1723 34.2941 77.0774 34.1996 76.9825 34.1996C76.6977 34.1996 76.5078 34.4831 76.4129 34.672C75.7483 35.5223 75.0838 36.3726 74.0395 37.0339C73.28 37.4118 72.7104 37.6952 72.2357 37.6952C71.4762 37.6952 71.0965 37.0339 70.8117 35.6168C70.5268 33.5383 70.5268 31.3654 70.9066 29.287C72.2357 21.6346 76.7926 15.1159 81.5394 9.06952L82.6786 7.65241C83.1533 7.08556 83.0584 6.61319 82.6786 6.04635C82.5837 5.76293 82.2989 5.57398 81.9191 5.57398C81.7293 5.57398 81.4445 5.66845 81.1596 5.76293C80.9698 5.76293 80.8748 5.8574 80.685 5.8574C77.647 7.27451 74.704 8.59715 71.8559 10.3922C71.6661 10.0143 71.6661 9.63636 71.9509 9.35294C72.3306 8.59715 72.8053 7.93583 73.185 7.27451C74.0395 5.8574 74.8939 4.44029 75.4635 2.9287C75.6534 2.17291 75.6534 1.51159 75.2736 0.755795C74.8939 0.188951 74.5141 0 74.0395 0C73.8496 0 73.6597 0 73.3749 0.0944786C69.6724 1.88949 66.4446 6.70767 64.7358 10.2977C64.5459 10.5811 64.451 10.959 64.356 11.3369C64.0712 12.1872 64.0712 13.0374 64.7358 13.7932ZM73.3749 2.07843C73.4699 1.98396 73.6597 2.07843 73.7547 2.07843C73.8496 2.17291 73.9445 2.36186 73.9445 2.45633C73.28 4.15687 72.3306 5.76292 71.3813 7.36899C70.7167 8.59715 69.8623 9.73084 69.1977 10.959C68.5332 12.1872 67.4889 12.6595 66.2547 13.0374H66.0649C65.7801 12.943 65.6851 12.754 65.6851 12.5651C66.3497 9.35294 70.5268 3.96792 73.3749 2.07843ZM71.8559 10.3922C71.761 10.3922 71.761 10.3922 71.761 10.3922V10.2977L71.8559 10.3922Z" fill="#780202"/>
<path d="M41.0708 33.8994C41.1179 30.4541 41.3536 28.7079 44.0405 28.7079V28.472H34V28.7079C36.6869 28.7079 36.9697 30.4541 36.9697 33.8994V56.0811C36.9697 59.5264 36.6869 61.2726 34 61.2726V61.5086H44.0405V61.2726C41.3536 61.2726 41.1179 59.5264 41.0708 56.0811V33.8994Z" fill="black"/>
<path d="M70.6964 56.0811V45.2734C70.6964 39.7044 67.3024 37.7222 62.6357 37.7222C59.2888 37.7222 56.9319 39.7044 55.7063 42.0642C55.8477 39.7044 56.1305 38.5717 56.4605 38.4301V38.1942H48.7769V38.4301C51.4638 38.4301 51.7466 40.1292 51.7466 43.6216V56.0811C51.7466 59.5264 51.4638 61.2726 48.7769 61.2726V61.5086H58.6289V61.2726C55.942 61.2726 55.6591 59.5264 55.6591 56.0811V45.5094C55.6591 44.4239 55.6591 43.48 55.7063 42.6305C56.7905 39.7516 59.7131 38.0526 61.6929 38.0526C66.2653 38.0526 66.831 41.8754 66.831 45.0375V56.0811C66.831 59.5264 66.5482 61.2726 63.8613 61.2726V61.5086H73.6661V61.2726C70.9792 61.2726 70.7435 59.5736 70.6964 56.0811Z" fill="black"/>
<path d="M87.4855 61.6502C84.4215 61.6502 83.7144 58.6769 83.7144 55.4676V38.4301H88.6168V38.1942H83.7144V32.9555H83.4787C82.913 35.5984 81.6874 36.2592 79.849 36.4951C79.849 36.7311 79.849 38.1942 79.849 38.1942C79.849 38.1942 78.4349 38.1942 77.6806 38.1942V38.4301H79.849C79.849 42.4889 79.849 55.2316 79.849 55.2316C79.849 60.8479 83.6201 61.9805 86.7784 61.9805C87.9569 61.9805 88.7582 61.7446 89.3239 61.4142V61.131C89.0882 61.2726 88.2869 61.6502 87.4855 61.6502Z" fill="black"/>
<path d="M92.2174 50.7009C92.2174 50.6065 92.2174 50.7953 92.2174 50.7009V50.7009ZM114.373 45.7926C113.477 40.4123 109.234 37.3446 103.672 37.7694C97.1198 38.2414 91.746 43.3856 92.2174 50.7009C92.7831 58.4881 99.2411 62.3581 105.888 61.9333C109.47 61.6974 111.591 60.4231 113.288 58.96V58.4409C111.497 60.1871 108.905 61.6974 105.888 61.7446C100.844 61.8862 97.0256 57.5914 96.4128 50.5593C96.2713 48.9075 96.3656 47.2556 96.6013 45.7926H114.373ZM103.672 37.9582C108.48 38.0526 109.989 41.7338 110.366 45.6038H96.6484C97.4969 41.1675 100.042 37.911 103.672 37.9582Z" fill="black"/>
<path d="M131.909 37.7694C130.118 37.9582 126.394 40.6483 125.215 44.9431C125.262 40.6011 125.592 38.6661 126.017 38.4301V38.1942H118.38V38.4301C121.067 38.4301 121.35 40.1292 121.35 43.6216V56.0811C121.35 59.5264 121.067 61.2726 118.38 61.2726V61.5086H128.185V61.2726C125.498 61.2726 125.262 59.5264 125.215 56.0811L125.262 45.4622C125.922 42.8665 127.855 40.082 129.505 39.61C131.249 39.0909 131.249 40.6011 132.427 41.3562C133.512 42.0642 135.162 41.545 135.209 39.9404C135.256 38.4301 133.794 37.5334 131.909 37.7694Z" fill="black"/>
<path d="M146.115 56.0811V45.5566C146.115 40.7899 146.445 38.6661 146.916 38.4301V38.1942H139.28V38.4301C141.966 38.4301 142.202 40.1292 142.249 43.5744V56.0811C142.202 59.5264 141.966 61.2726 139.28 61.2726V61.5086H149.084V61.2726C146.397 61.2726 146.115 59.5264 146.115 56.0811ZM144.182 33.2387C145.549 33.2387 146.68 32.106 146.68 30.6429C146.68 29.1799 145.549 28 144.182 28C142.768 28 141.684 29.1799 141.684 30.6429C141.684 32.106 142.768 33.2387 144.182 33.2387Z" fill="black"/>
<path d="M164.811 37.7694C157.787 38.2414 152.885 43.7632 153.309 50.9841C153.733 58.2993 160.097 62.5941 166.932 61.9333C173.626 61.3198 177.774 55.3732 177.538 48.8131C177.302 41.6866 171.457 37.2975 164.811 37.7694ZM166.932 61.7446C161.794 62.4053 157.976 58.1105 157.41 50.7009C156.891 43.48 159.673 38.3829 164.811 37.9582C169.666 37.5806 173.013 43.1497 173.39 49.0019C173.814 55.326 171.316 61.131 166.932 61.7446Z" fill="black"/>
<path d="M194.699 37.7694C192.908 37.9582 189.184 40.6483 188.005 44.9431C188.053 40.6011 188.383 38.6661 188.807 38.4301V38.1942H181.17V38.4301C183.857 38.4301 184.14 40.1292 184.14 43.6216V56.0811C184.14 59.5264 183.857 61.2726 181.17 61.2726V61.5086H190.975V61.2726C188.288 61.2726 188.053 59.5264 188.005 56.0811L188.053 45.4622C188.713 42.8665 190.645 40.082 192.295 39.61C194.039 39.0909 194.039 40.6011 195.218 41.3562C196.302 42.0642 197.952 41.545 197.999 39.9404C198.046 38.4301 196.585 37.5334 194.699 37.7694Z" fill="black"/>
</svg>
