<svg viewBox="0 0 40 29" fill="none" xmlns="http://www.w3.org/2000/svg">
<path d="M37.3062 7.539H12.5706L7.75524 0H1.01376C0.45619 0 0 0.45234 0 1.0052C0 1.55806 0.45619 2.0104 1.01376 2.0104H6.64011L17.4873 19.0988L17.5887 19.2998C18.0956 20.104 19.0079 20.6066 19.971 20.6066H34.1129C35.228 20.6066 36.2418 19.9532 36.6473 18.8978L39.7899 11.2582C40.1448 10.4038 40.0434 9.44888 39.5365 8.69498C39.0803 7.99134 38.2186 7.539 37.3062 7.539ZM37.9652 10.5043L34.8225 18.1439C34.7212 18.3952 34.4677 18.5962 34.1636 18.5962H20.0217C19.7683 18.5962 19.5148 18.4454 19.3627 18.2444L13.8378 9.5494H37.3062C37.6611 9.5494 37.8131 9.75044 37.9145 9.85096C37.9652 9.95148 38.1172 10.2028 37.9652 10.5043Z"/>
<path d="M35.6842 25.5823C35.6842 23.6724 34.1129 22.1646 32.2374 22.1646C30.3113 22.1646 28.7906 23.7227 28.7906 25.5823C28.7906 27.4419 30.362 29 32.2374 29C34.1129 29 35.6842 27.4419 35.6842 25.5823ZM30.7675 25.5823C30.7675 24.7781 31.4264 24.175 32.1867 24.175C32.9977 24.175 33.606 24.8284 33.606 25.5823C33.606 26.3362 32.9977 26.9896 32.2374 26.9896C31.4264 26.9896 30.7675 26.3362 30.7675 25.5823Z" />
<path d="M21.0861 22.1144C19.16 22.1144 17.6393 23.6724 17.6393 25.5321C17.6393 27.3917 19.2107 28.9497 21.0861 28.9497C23.0123 28.9497 24.5329 27.3917 24.5329 25.5321C24.5329 23.6724 22.9616 22.1144 21.0861 22.1144ZM21.0861 26.9896C20.2751 26.9896 19.6669 26.3362 19.6669 25.5823C19.6669 24.8284 20.3258 24.175 21.0861 24.175C21.8971 24.175 22.5054 24.8284 22.5054 25.5823C22.5054 26.3362 21.8464 26.9896 21.0861 26.9896Z" />
</svg>
