<svg viewBox="0 0 29 29" fill="none" xmlns="http://www.w3.org/2000/svg">
<path fill-rule="evenodd" clip-rule="evenodd" d="M18.5947 5.4003C22.2426 9.04306 22.2546 14.9557 18.6238 18.6132L18.6042 18.633C14.9629 22.2798 9.05919 22.2851 5.41136 18.6424C1.76022 14.9964 1.75158 9.0763 5.39207 5.41959C9.03257 1.76288 14.9436 1.75425 18.5947 5.4003ZM19.5093 21.4033C14.802 25.1906 7.90308 24.9031 3.528 20.534C-1.16631 15.8463 -1.1774 8.23485 3.50322 3.53338C8.18388 -1.16808 15.7838 -1.1792 20.4781 3.50857C24.8531 7.87758 25.1604 14.7862 21.3926 19.5117L29 27.1084L27.1166 29L19.5093 21.4033Z"/>
</svg>
